<svg xmlns="http://www.w3.org/2000/svg" width="297.952" height="297.952" viewBox="0 0 297.952 297.952"><defs><style>.a{fill:#0cc25b;fill-rule:evenodd;}</style></defs><path class="a" d="M153.576,302.552C71.541,302.552,4.6,235.611,4.6,153.576S71.541,4.6,153.576,4.6,302.552,71.541,302.552,153.576,235.611,302.552,153.576,302.552ZM227.408,99.1a12.087,12.087,0,0,0-17.391,0L131.59,180.812,96.808,144.388a12.087,12.087,0,0,0-17.391,0,12.875,12.875,0,0,0,0,18.048l43.643,45.283a12.087,12.087,0,0,0,17.391,0l86.957-90.567A12.875,12.875,0,0,0,227.408,99.1Z" transform="translate(-4.6 -4.6)"/></svg>